<svg xmlns="http://www.w3.org/2000/svg" width="256" height="256" viewBox="0 0 256 256"><rect width="256" height="256" fill="#3d2a24"/><rect x="-64" y="2" width="60" height="28" fill="#8b3a2b"/><rect x="0" y="2" width="60" height="28" fill="#94422f"/><rect x="64" y="2" width="60" height="28" fill="#94422f"/><rect x="128" y="2" width="60" height="28" fill="#94422f"/><rect x="-64" y="2" width="60" height="28" fill="#8b3a2b"/><rect x="-32" y="34" width="60" height="28" fill="#94422f"/><rect x="32" y="34" width="60" height="28" fill="#94422f"/><rect x="96" y="34" width="60" height="28" fill="#7d3326"/><rect x="160" y="34" width="60" height="28" fill="#94422f"/><rect x="-32" y="34" width="60" height="28" fill="#8b3a2b"/><rect x="-64" y="66" width="60" height="28" fill="#94422f"/><rect x="0" y="66" width="60" height="28" fill="#8b3a2b"/><rect x="64" y="66" width="60" height="28" fill="#8b3a2b"/><rect x="128" y="66" width="60" height="28" fill="#94422f"/><rect x="-64" y="66" width="60" height="28" fill="#8b3a2b"/><rect x="-32" y="98" width="60" height="28" fill="#94422f"/><rect x="32" y="98" width="60" height="28" fill="#7d3326"/><rect x="96" y="98" width="60" height="28" fill="#8b3a2b"/><rect x="160" y="98" width="60" height="28" fill="#8b3a2b"/><rect x="-32" y="98" width="60" height="28" fill="#7d3326"/><rect x="-64" y="130" width="60" height="28" fill="#94422f"/><rect x="0" y="130" width="60" height="28" fill="#7d3326"/><rect x="64" y="130" width="60" height="28" fill="#94422f"/><rect x="128" y="130" width="60" height="28" fill="#8b3a2b"/><rect x="-64" y="130" width="60" height="28" fill="#8b3a2b"/><rect x="-32" y="162" width="60" height="28" fill="#8b3a2b"/><rect x="32" y="162" width="60" height="28" fill="#8b3a2b"/><rect x="96" y="162" width="60" height="28" fill="#7d3326"/><rect x="160" y="162" width="60" height="28" fill="#8b3a2b"/><rect x="-32" y="162" width="60" height="28" fill="#8b3a2b"/><rect x="-64" y="194" width="60" height="28" fill="#94422f"/><rect x="0" y="194" width="60" height="28" fill="#8b3a2b"/><rect x="64" y="194" width="60" height="28" fill="#8b3a2b"/><rect x="128" y="194" width="60" height="28" fill="#7d3326"/><rect x="-64" y="194" width="60" height="28" fill="#94422f"/><rect x="-32" y="226" width="60" height="28" fill="#8b3a2b"/><rect x="32" y="226" width="60" height="28" fill="#7d3326"/><rect x="96" y="226" width="60" height="28" fill="#94422f"/><rect x="160" y="226" width="60" height="28" fill="#8b3a2b"/><rect x="-32" y="226" width="60" height="28" fill="#7d3326"/></svg>
