<svg xmlns="http://www.w3.org/2000/svg" width="256" height="256" viewBox="0 0 256 256"><rect width="256" height="256" fill="#3a3a3c"/><polygon points="227,147 232,158 221,146" fill="#6e6e70"/><polygon points="141,10 138,16 144,7" fill="#5a5a5c"/><polygon points="184,20 181,18 173,16" fill="#6e6e70"/><polygon points="196,56 190,62 194,58" fill="#7a6a50"/><polygon points="123,244 133,240 130,247" fill="#6e6e70"/><polygon points="160,210 170,207 173,209" fill="#6e6e70"/><polygon points="255,239 262,228 246,228" fill="#7a6a50"/><polygon points="161,-1 153,2 163,11" fill="#5a5a5c"/><polygon points="187,228 180,228 179,229" fill="#2c2c2e"/><polygon points="148,64 160,59 148,65" fill="#2c2c2e"/><polygon points="87,46 81,52 83,54" fill="#2c2c2e"/><polygon points="227,130 227,129 227,140" fill="#7a6a50"/><polygon points="252,47 250,39 243,49" fill="#5a5a5c"/><polygon points="57,209 44,203 48,209" fill="#7a6a50"/><polygon points="66,46 65,46 64,35" fill="#5a5a5c"/><polygon points="80,184 80,189 82,180" fill="#7a6a50"/><polygon points="176,198 177,205 180,200" fill="#6e6e70"/><polygon points="167,181 156,183 156,183" fill="#5a5a5c"/><polygon points="228,159 224,159 236,161" fill="#5a5a5c"/><polygon points="249,200 257,199 244,209" fill="#7a6a50"/><polygon points="229,198 235,196 238,184" fill="#7a6a50"/><polygon points="78,37 77,32 74,37" fill="#7a6a50"/><polygon points="4,172 6,182 7,167" fill="#6e6e70"/><polygon points="215,79 230,84 217,79" fill="#2c2c2e"/><polygon points="232,170 221,163 228,175" fill="#6e6e70"/><polygon points="99,159 92,160 105,166" fill="#7a6a50"/><polygon points="104,165 101,176 108,161" fill="#7a6a50"/><polygon points="7,154 7,150 7,154" fill="#2c2c2e"/><polygon points="69,52 65,55 63,47" fill="#5a5a5c"/><polygon points="17,61 14,70 29,61" fill="#7a6a50"/><polygon points="180,101 187,98 180,98" fill="#7a6a50"/><polygon points="235,177 237,170 234,167" fill="#7a6a50"/><polygon points="36,159 30,157 32,167" fill="#7a6a50"/><polygon points="161,170 159,182 169,168" fill="#7a6a50"/><polygon points="239,82 236,82 238,78" fill="#6e6e70"/><polygon points="-1,113 8,106 -5,111" fill="#5a5a5c"/><polygon points="145,34 151,25 153,28" fill="#2c2c2e"/><polygon points="66,37 73,35 67,29" fill="#2c2c2e"/><polygon points="95,150 93,154 92,160" fill="#7a6a50"/><polygon points="135,93 135,94 151,96" fill="#7a6a50"/><polygon points="235,159 243,167 243,158" fill="#2c2c2e"/><polygon points="161,43 156,45 163,44" fill="#2c2c2e"/><polygon points="6,172 8,163 -0,171" fill="#7a6a50"/><polygon points="164,156 168,153 158,155" fill="#7a6a50"/><polygon points="106,133 121,122 109,130" fill="#7a6a50"/><polygon points="5,144 17,147 6,132" fill="#6e6e70"/><polygon points="245,41 239,24 252,41" fill="#5a5a5c"/><polygon points="94,60 102,63 97,57" fill="#7a6a50"/><polygon points="117,101 112,104 118,105" fill="#6e6e70"/><polygon points="36,94 43,101 43,100" fill="#6e6e70"/><polygon points="230,81 221,87 221,83" fill="#7a6a50"/><polygon points="14,65 14,70 22,65" fill="#5a5a5c"/><polygon points="152,227 157,222 164,221" fill="#7a6a50"/><polygon points="59,165 67,161 67,173" fill="#2c2c2e"/><polygon points="45,190 31,191 32,188" fill="#5a5a5c"/><polygon points="35,95 28,89 32,80" fill="#7a6a50"/><polygon points="260,206 245,202 249,204" fill="#5a5a5c"/><polygon points="153,65 144,54 156,56" fill="#6e6e70"/><polygon points="46,120 43,111 42,123" fill="#2c2c2e"/><polygon points="110,18 104,20 117,12" fill="#5a5a5c"/><polygon points="125,23 128,13 139,20" fill="#5a5a5c"/><polygon points="209,202 212,194 204,208" fill="#7a6a50"/><polygon points="98,95 101,95 113,100" fill="#6e6e70"/><polygon points="194,24 192,26 192,30" fill="#5a5a5c"/><polygon points="7,85 2,80 8,80" fill="#6e6e70"/><polygon points="251,15 247,8 246,12" fill="#7a6a50"/><polygon points="199,242 212,238 203,247" fill="#7a6a50"/><polygon points="115,207 104,194 112,206" fill="#5a5a5c"/><polygon points="220,78 210,73 214,68" fill="#7a6a50"/><polygon points="81,163 72,166 76,163" fill="#2c2c2e"/><polygon points="39,205 42,198 38,196" fill="#6e6e70"/><polygon points="229,231 233,236 229,240" fill="#2c2c2e"/><polygon points="24,159 20,162 32,173" fill="#5a5a5c"/><polygon points="70,69 61,68 74,77" fill="#7a6a50"/><polygon points="71,264 66,255 67,260" fill="#2c2c2e"/><polygon points="34,190 29,192 19,183" fill="#6e6e70"/><polygon points="159,165 158,152 168,159" fill="#2c2c2e"/><polygon points="223,80 226,94 228,79" fill="#5a5a5c"/><polygon points="65,147 56,144 68,149" fill="#6e6e70"/><polygon points="34,110 29,109 23,113" fill="#7a6a50"/><polygon points="174,146 174,154 176,144" fill="#5a5a5c"/><polygon points="182,155 179,141 182,153" fill="#6e6e70"/><polygon points="229,219 232,230 230,230" fill="#2c2c2e"/><polygon points="64,62 68,69 77,61" fill="#5a5a5c"/><polygon points="127,71 129,77 129,78" fill="#7a6a50"/><polygon points="151,68 148,61 152,64" fill="#5a5a5c"/><polygon points="118,29 129,32 129,29" fill="#6e6e70"/><polygon points="198,175 197,159 196,165" fill="#7a6a50"/><polygon points="108,140 118,150 116,153" fill="#5a5a5c"/><polygon points="55,243 59,242 62,239" fill="#2c2c2e"/></svg>
