<svg xmlns="http://www.w3.org/2000/svg" width="256" height="256" viewBox="0 0 256 256"><rect width="256" height="256" fill="#4a1d24"/><circle cx="176.8" cy="191.0" r="1.1" fill="#3a141a" opacity="0.40"/><circle cx="245.9" cy="23.5" r="1.1" fill="#62303a" opacity="0.37"/><circle cx="246.9" cy="164.7" r="1.0" fill="#62303a" opacity="0.28"/><circle cx="17.4" cy="100.1" r="0.6" fill="#62303a" opacity="0.28"/><circle cx="3.7" cy="92.5" r="0.7" fill="#3a141a" opacity="0.58"/><circle cx="166.0" cy="130.6" r="1.1" fill="#5a2730" opacity="0.33"/><circle cx="25.6" cy="77.6" r="0.8" fill="#62303a" opacity="0.33"/><circle cx="253.3" cy="224.8" r="1.1" fill="#5a2730" opacity="0.40"/><circle cx="213.1" cy="7.9" r="1.1" fill="#3a141a" opacity="0.30"/><circle cx="53.5" cy="89.8" r="0.8" fill="#62303a" opacity="0.25"/><circle cx="48.6" cy="231.7" r="0.7" fill="#62303a" opacity="0.55"/><circle cx="79.9" cy="67.3" r="0.6" fill="#5a2730" opacity="0.29"/><circle cx="251.6" cy="98.1" r="1.0" fill="#62303a" opacity="0.51"/><circle cx="15.9" cy="75.7" r="0.8" fill="#3a141a" opacity="0.67"/><circle cx="91.0" cy="138.8" r="0.7" fill="#5a2730" opacity="0.60"/><circle cx="64.4" cy="93.8" r="0.9" fill="#3a141a" opacity="0.64"/><circle cx="232.8" cy="42.5" r="1.1" fill="#3a141a" opacity="0.35"/><circle cx="49.6" cy="56.1" r="0.8" fill="#5a2730" opacity="0.36"/><circle cx="228.6" cy="67.3" r="0.6" fill="#3a141a" opacity="0.55"/><circle cx="214.1" cy="60.1" r="0.6" fill="#5a2730" opacity="0.47"/><circle cx="28.1" cy="142.2" r="0.9" fill="#5a2730" opacity="0.30"/><circle cx="122.8" cy="44.5" r="0.7" fill="#5a2730" opacity="0.28"/><circle cx="48.8" cy="68.1" r="0.9" fill="#3a141a" opacity="0.67"/><circle cx="142.0" cy="18.3" r="0.7" fill="#62303a" opacity="0.35"/><circle cx="156.5" cy="256.0" r="1.2" fill="#5a2730" opacity="0.30"/><circle cx="241.6" cy="134.4" r="0.7" fill="#3a141a" opacity="0.48"/><circle cx="81.0" cy="26.0" r="0.9" fill="#5a2730" opacity="0.67"/><circle cx="118.0" cy="187.2" r="0.6" fill="#5a2730" opacity="0.53"/><circle cx="25.1" cy="71.8" r="1.1" fill="#3a141a" opacity="0.30"/><circle cx="252.0" cy="123.3" r="0.7" fill="#3a141a" opacity="0.53"/><circle cx="207.8" cy="231.1" r="1.0" fill="#62303a" opacity="0.58"/><circle cx="137.5" cy="59.9" r="0.9" fill="#62303a" opacity="0.31"/><circle cx="93.3" cy="99.2" r="1.1" fill="#5a2730" opacity="0.58"/><circle cx="219.5" cy="94.1" r="1.1" fill="#3a141a" opacity="0.56"/><circle cx="4.0" cy="117.4" r="1.0" fill="#5a2730" opacity="0.35"/><circle cx="9.2" cy="112.4" r="0.7" fill="#3a141a" opacity="0.39"/><circle cx="80.4" cy="51.0" r="0.6" fill="#3a141a" opacity="0.56"/><circle cx="3.2" cy="242.8" r="0.7" fill="#5a2730" opacity="0.42"/><circle cx="218.4" cy="190.1" r="1.0" fill="#3a141a" opacity="0.53"/><circle cx="55.4" cy="213.5" r="0.7" fill="#5a2730" opacity="0.37"/><circle cx="249.6" cy="193.5" r="0.6" fill="#3a141a" opacity="0.40"/><circle cx="171.2" cy="5.9" r="0.8" fill="#3a141a" opacity="0.36"/><circle cx="214.3" cy="39.6" r="1.1" fill="#62303a" opacity="0.45"/><circle cx="143.8" cy="182.2" r="0.7" fill="#3a141a" opacity="0.50"/><circle cx="70.1" cy="106.5" r="1.1" fill="#62303a" opacity="0.31"/><circle cx="82.2" cy="192.8" r="0.7" fill="#5a2730" opacity="0.33"/><circle cx="149.9" cy="115.8" r="0.8" fill="#62303a" opacity="0.55"/><circle cx="220.2" cy="245.0" r="0.8" fill="#62303a" opacity="0.43"/><circle cx="13.2" cy="234.2" r="0.7" fill="#3a141a" opacity="0.66"/><circle cx="18.1" cy="192.9" r="0.7" fill="#3a141a" opacity="0.44"/><circle cx="135.5" cy="217.3" r="1.1" fill="#62303a" opacity="0.57"/><circle cx="149.3" cy="114.2" r="0.9" fill="#62303a" opacity="0.51"/><circle cx="205.1" cy="230.1" r="1.2" fill="#3a141a" opacity="0.45"/><circle cx="151.6" cy="64.9" r="0.8" fill="#62303a" opacity="0.68"/><circle cx="164.7" cy="105.5" r="1.2" fill="#5a2730" opacity="0.55"/><circle cx="18.8" cy="189.8" r="1.0" fill="#5a2730" opacity="0.35"/><circle cx="84.0" cy="235.6" r="0.9" fill="#5a2730" opacity="0.56"/><circle cx="181.5" cy="165.8" r="0.7" fill="#5a2730" opacity="0.60"/><circle cx="59.6" cy="110.2" r="1.2" fill="#3a141a" opacity="0.49"/><circle cx="102.7" cy="34.3" r="1.0" fill="#5a2730" opacity="0.58"/><circle cx="92.1" cy="169.8" r="1.1" fill="#3a141a" opacity="0.70"/><circle cx="163.8" cy="225.0" r="0.7" fill="#62303a" opacity="0.31"/><circle cx="104.0" cy="107.7" r="0.6" fill="#62303a" opacity="0.45"/><circle cx="85.0" cy="139.0" r="0.8" fill="#5a2730" opacity="0.39"/><circle cx="207.7" cy="177.4" r="1.0" fill="#3a141a" opacity="0.43"/><circle cx="30.0" cy="161.1" r="0.8" fill="#62303a" opacity="0.54"/><circle cx="162.5" cy="180.5" r="1.2" fill="#3a141a" opacity="0.42"/><circle cx="217.7" cy="166.1" r="0.7" fill="#3a141a" opacity="0.52"/><circle cx="217.5" cy="224.0" r="1.0" fill="#3a141a" opacity="0.65"/><circle cx="152.5" cy="105.5" r="0.9" fill="#3a141a" opacity="0.28"/><circle cx="1.2" cy="44.3" r="1.0" fill="#3a141a" opacity="0.33"/><circle cx="44.7" cy="230.6" r="1.1" fill="#3a141a" opacity="0.26"/><circle cx="29.2" cy="239.3" r="1.2" fill="#3a141a" opacity="0.46"/><circle cx="18.8" cy="89.3" r="0.8" fill="#62303a" opacity="0.47"/><circle cx="66.2" cy="14.1" r="0.7" fill="#3a141a" opacity="0.37"/><circle cx="16.2" cy="13.4" r="1.2" fill="#3a141a" opacity="0.61"/><circle cx="186.6" cy="87.5" r="0.9" fill="#3a141a" opacity="0.52"/><circle cx="253.3" cy="206.1" r="1.1" fill="#62303a" opacity="0.44"/><circle cx="75.6" cy="4.3" r="0.8" fill="#3a141a" opacity="0.61"/><circle cx="24.1" cy="150.1" r="0.7" fill="#62303a" opacity="0.45"/><circle cx="119.9" cy="208.5" r="1.0" fill="#62303a" opacity="0.46"/><circle cx="111.5" cy="3.4" r="1.2" fill="#3a141a" opacity="0.30"/><circle cx="162.3" cy="61.7" r="0.8" fill="#5a2730" opacity="0.48"/><circle cx="85.0" cy="14.6" r="0.7" fill="#3a141a" opacity="0.35"/><circle cx="74.4" cy="163.8" r="1.0" fill="#62303a" opacity="0.34"/><circle cx="47.1" cy="252.5" r="1.2" fill="#5a2730" opacity="0.31"/><circle cx="15.9" cy="118.5" r="0.8" fill="#62303a" opacity="0.57"/><circle cx="245.4" cy="203.4" r="0.8" fill="#5a2730" opacity="0.49"/><circle cx="78.4" cy="198.3" r="0.8" fill="#5a2730" opacity="0.27"/><circle cx="131.5" cy="38.7" r="1.2" fill="#3a141a" opacity="0.46"/><circle cx="50.6" cy="30.6" r="0.9" fill="#62303a" opacity="0.64"/><circle cx="175.6" cy="122.0" r="0.8" fill="#3a141a" opacity="0.30"/><circle cx="17.9" cy="99.1" r="0.9" fill="#5a2730" opacity="0.61"/><circle cx="131.5" cy="115.1" r="1.1" fill="#62303a" opacity="0.44"/><circle cx="180.5" cy="137.0" r="1.1" fill="#62303a" opacity="0.67"/><circle cx="158.4" cy="26.9" r="0.9" fill="#62303a" opacity="0.67"/><circle cx="34.1" cy="219.7" r="1.2" fill="#62303a" opacity="0.31"/><circle cx="119.3" cy="158.6" r="0.8" fill="#3a141a" opacity="0.63"/><circle cx="169.1" cy="87.2" r="0.9" fill="#3a141a" opacity="0.43"/><circle cx="24.1" cy="246.7" r="0.6" fill="#5a2730" opacity="0.66"/><circle cx="171.6" cy="135.7" r="1.0" fill="#5a2730" opacity="0.32"/><circle cx="136.2" cy="213.3" r="0.7" fill="#3a141a" opacity="0.42"/><circle cx="206.6" cy="181.2" r="0.8" fill="#3a141a" opacity="0.46"/><circle cx="141.3" cy="23.5" r="1.2" fill="#62303a" opacity="0.66"/><circle cx="121.0" cy="244.8" r="1.0" fill="#5a2730" opacity="0.59"/><circle cx="100.7" cy="51.7" r="1.1" fill="#62303a" opacity="0.34"/><circle cx="245.3" cy="27.4" r="1.1" fill="#5a2730" opacity="0.61"/><circle cx="7.1" cy="131.3" r="1.1" fill="#62303a" opacity="0.32"/><circle cx="218.8" cy="82.2" r="0.7" fill="#62303a" opacity="0.63"/><circle cx="174.8" cy="168.9" r="0.6" fill="#3a141a" opacity="0.64"/><circle cx="147.2" cy="2.7" r="1.1" fill="#62303a" opacity="0.27"/><circle cx="9.6" cy="255.4" r="0.7" fill="#5a2730" opacity="0.62"/><circle cx="68.1" cy="93.7" r="0.8" fill="#5a2730" opacity="0.43"/><circle cx="72.7" cy="241.3" r="0.6" fill="#62303a" opacity="0.43"/><circle cx="162.8" cy="227.1" r="1.1" fill="#3a141a" opacity="0.62"/><circle cx="164.9" cy="13.4" r="1.1" fill="#3a141a" opacity="0.59"/><circle cx="208.1" cy="64.8" r="1.0" fill="#5a2730" opacity="0.45"/><circle cx="78.6" cy="61.4" r="1.0" fill="#62303a" opacity="0.62"/><circle cx="88.4" cy="216.0" r="1.1" fill="#3a141a" opacity="0.64"/><circle cx="244.4" cy="223.5" r="0.9" fill="#3a141a" opacity="0.61"/><circle cx="215.7" cy="250.7" r="1.2" fill="#5a2730" opacity="0.60"/><circle cx="200.3" cy="222.7" r="0.7" fill="#5a2730" opacity="0.41"/><circle cx="16.4" cy="30.3" r="1.1" fill="#3a141a" opacity="0.35"/><circle cx="18.1" cy="17.3" r="1.0" fill="#3a141a" opacity="0.64"/><circle cx="163.9" cy="79.7" r="0.9" fill="#5a2730" opacity="0.39"/><circle cx="161.9" cy="229.1" r="0.9" fill="#5a2730" opacity="0.58"/><circle cx="79.8" cy="223.7" r="0.9" fill="#3a141a" opacity="0.52"/><circle cx="255.4" cy="229.4" r="0.6" fill="#5a2730" opacity="0.44"/><circle cx="225.4" cy="170.4" r="0.7" fill="#5a2730" opacity="0.49"/><circle cx="237.5" cy="168.7" r="1.1" fill="#62303a" opacity="0.66"/><circle cx="8.9" cy="151.3" r="0.9" fill="#62303a" opacity="0.31"/><circle cx="255.7" cy="47.1" r="0.8" fill="#62303a" opacity="0.60"/><circle cx="91.3" cy="56.9" r="1.0" fill="#3a141a" opacity="0.35"/><circle cx="226.1" cy="254.1" r="0.9" fill="#5a2730" opacity="0.54"/><circle cx="19.7" cy="106.7" r="0.8" fill="#5a2730" opacity="0.48"/><circle cx="249.0" cy="125.8" r="1.1" fill="#3a141a" opacity="0.55"/><circle cx="36.7" cy="244.9" r="1.2" fill="#62303a" opacity="0.66"/><circle cx="42.0" cy="4.5" r="1.0" fill="#3a141a" opacity="0.64"/><circle cx="92.6" cy="236.5" r="0.7" fill="#3a141a" opacity="0.66"/><circle cx="217.9" cy="182.9" r="1.0" fill="#3a141a" opacity="0.48"/><circle cx="238.8" cy="143.4" r="0.7" fill="#62303a" opacity="0.45"/><circle cx="7.8" cy="34.9" r="1.0" fill="#62303a" opacity="0.37"/><circle cx="107.6" cy="131.4" r="0.9" fill="#3a141a" opacity="0.60"/><circle cx="205.5" cy="231.2" r="0.7" fill="#3a141a" opacity="0.49"/><circle cx="59.4" cy="210.4" r="0.7" fill="#3a141a" opacity="0.66"/><circle cx="51.7" cy="149.9" r="1.0" fill="#62303a" opacity="0.46"/><circle cx="152.1" cy="55.3" r="1.1" fill="#5a2730" opacity="0.67"/><circle cx="13.5" cy="241.7" r="0.9" fill="#3a141a" opacity="0.64"/><circle cx="229.8" cy="143.2" r="0.8" fill="#5a2730" opacity="0.46"/><circle cx="163.5" cy="255.4" r="0.8" fill="#62303a" opacity="0.36"/><circle cx="50.9" cy="41.3" r="0.8" fill="#62303a" opacity="0.45"/><circle cx="79.4" cy="162.6" r="0.9" fill="#3a141a" opacity="0.34"/><circle cx="80.8" cy="129.2" r="0.7" fill="#5a2730" opacity="0.63"/><circle cx="196.8" cy="151.6" r="0.9" fill="#5a2730" opacity="0.46"/><circle cx="50.7" cy="151.5" r="0.7" fill="#3a141a" opacity="0.35"/><circle cx="90.1" cy="98.2" r="0.6" fill="#3a141a" opacity="0.41"/><circle cx="108.8" cy="90.1" r="1.0" fill="#5a2730" opacity="0.54"/><circle cx="119.1" cy="213.7" r="0.9" fill="#3a141a" opacity="0.63"/><circle cx="186.5" cy="90.7" r="1.0" fill="#62303a" opacity="0.43"/><circle cx="110.7" cy="76.3" r="0.9" fill="#62303a" opacity="0.59"/><circle cx="1.0" cy="175.7" r="1.0" fill="#62303a" opacity="0.63"/><circle cx="202.5" cy="151.0" r="1.0" fill="#5a2730" opacity="0.61"/><circle cx="40.0" cy="141.3" r="1.0" fill="#5a2730" opacity="0.30"/><circle cx="229.8" cy="204.9" r="0.6" fill="#5a2730" opacity="0.61"/><circle cx="112.8" cy="70.3" r="0.9" fill="#3a141a" opacity="0.41"/><circle cx="136.2" cy="237.9" r="1.0" fill="#5a2730" opacity="0.30"/><circle cx="65.2" cy="156.1" r="0.9" fill="#5a2730" opacity="0.26"/><circle cx="204.8" cy="17.2" r="1.1" fill="#62303a" opacity="0.49"/><circle cx="70.6" cy="85.1" r="1.1" fill="#3a141a" opacity="0.67"/><circle cx="96.6" cy="19.4" r="0.7" fill="#62303a" opacity="0.61"/><circle cx="37.6" cy="58.4" r="0.6" fill="#5a2730" opacity="0.30"/><circle cx="248.6" cy="232.2" r="0.7" fill="#3a141a" opacity="0.50"/><circle cx="236.0" cy="22.9" r="1.2" fill="#5a2730" opacity="0.63"/><circle cx="10.2" cy="127.2" r="1.0" fill="#5a2730" opacity="0.29"/><circle cx="223.5" cy="192.9" r="1.0" fill="#5a2730" opacity="0.27"/><circle cx="14.3" cy="31.8" r="0.6" fill="#62303a" opacity="0.56"/><circle cx="43.1" cy="118.6" r="0.7" fill="#3a141a" opacity="0.52"/><circle cx="172.2" cy="248.2" r="0.8" fill="#5a2730" opacity="0.40"/><circle cx="104.7" cy="114.2" r="0.9" fill="#3a141a" opacity="0.70"/><circle cx="180.7" cy="44.8" r="0.7" fill="#3a141a" opacity="0.61"/><circle cx="160.3" cy="167.7" r="0.9" fill="#62303a" opacity="0.56"/><circle cx="8.6" cy="112.5" r="1.1" fill="#62303a" opacity="0.26"/><circle cx="112.4" cy="5.9" r="1.0" fill="#62303a" opacity="0.43"/><circle cx="241.5" cy="220.0" r="1.1" fill="#62303a" opacity="0.48"/><circle cx="127.2" cy="176.2" r="0.7" fill="#62303a" opacity="0.25"/><circle cx="205.3" cy="201.2" r="0.9" fill="#3a141a" opacity="0.63"/><circle cx="92.7" cy="180.6" r="0.7" fill="#5a2730" opacity="0.58"/><circle cx="104.6" cy="245.7" r="1.2" fill="#62303a" opacity="0.32"/><circle cx="229.1" cy="48.9" r="1.2" fill="#3a141a" opacity="0.61"/><circle cx="201.8" cy="210.2" r="1.2" fill="#62303a" opacity="0.40"/><circle cx="164.5" cy="143.3" r="1.1" fill="#5a2730" opacity="0.32"/><circle cx="219.6" cy="125.1" r="0.8" fill="#3a141a" opacity="0.47"/><circle cx="212.1" cy="11.9" r="0.9" fill="#3a141a" opacity="0.51"/><circle cx="232.2" cy="150.1" r="0.9" fill="#3a141a" opacity="0.29"/><circle cx="198.9" cy="26.3" r="0.8" fill="#3a141a" opacity="0.52"/><circle cx="111.5" cy="225.9" r="1.1" fill="#3a141a" opacity="0.58"/><circle cx="166.1" cy="25.0" r="0.9" fill="#62303a" opacity="0.38"/><circle cx="16.6" cy="66.1" r="1.1" fill="#3a141a" opacity="0.66"/><circle cx="241.4" cy="255.5" r="0.9" fill="#62303a" opacity="0.56"/><circle cx="165.8" cy="71.1" r="1.0" fill="#5a2730" opacity="0.43"/><circle cx="243.2" cy="121.0" r="0.7" fill="#62303a" opacity="0.63"/><circle cx="207.7" cy="75.6" r="1.0" fill="#62303a" opacity="0.58"/><circle cx="240.0" cy="90.0" r="1.1" fill="#3a141a" opacity="0.37"/><circle cx="129.6" cy="113.9" r="0.6" fill="#3a141a" opacity="0.63"/><circle cx="228.7" cy="8.8" r="0.9" fill="#5a2730" opacity="0.64"/><circle cx="20.6" cy="74.5" r="1.1" fill="#62303a" opacity="0.33"/><circle cx="35.0" cy="208.6" r="0.7" fill="#3a141a" opacity="0.63"/><circle cx="66.6" cy="42.0" r="1.1" fill="#3a141a" opacity="0.46"/><circle cx="201.2" cy="64.0" r="1.1" fill="#3a141a" opacity="0.32"/><circle cx="255.1" cy="77.3" r="1.2" fill="#3a141a" opacity="0.53"/><circle cx="136.4" cy="218.8" r="0.9" fill="#3a141a" opacity="0.44"/><circle cx="120.2" cy="80.1" r="0.6" fill="#5a2730" opacity="0.35"/><circle cx="118.6" cy="210.7" r="1.2" fill="#5a2730" opacity="0.32"/><circle cx="175.1" cy="141.9" r="0.8" fill="#3a141a" opacity="0.66"/><circle cx="230.1" cy="120.2" r="1.2" fill="#62303a" opacity="0.42"/><circle cx="141.8" cy="195.0" r="1.0" fill="#3a141a" opacity="0.40"/><circle cx="24.4" cy="97.2" r="0.7" fill="#3a141a" opacity="0.47"/><circle cx="72.3" cy="84.5" r="0.9" fill="#3a141a" opacity="0.39"/><circle cx="7.3" cy="52.4" r="0.7" fill="#5a2730" opacity="0.45"/><circle cx="94.6" cy="199.2" r="1.2" fill="#62303a" opacity="0.41"/><circle cx="243.0" cy="162.3" r="0.9" fill="#62303a" opacity="0.55"/><circle cx="92.2" cy="154.8" r="0.8" fill="#62303a" opacity="0.36"/><circle cx="249.1" cy="16.5" r="0.6" fill="#62303a" opacity="0.28"/><circle cx="131.8" cy="169.6" r="1.1" fill="#3a141a" opacity="0.55"/><circle cx="175.2" cy="237.2" r="1.2" fill="#62303a" opacity="0.51"/><circle cx="170.9" cy="68.2" r="1.2" fill="#3a141a" opacity="0.69"/><circle cx="80.1" cy="145.5" r="0.6" fill="#5a2730" opacity="0.41"/><circle cx="181.8" cy="136.4" r="0.7" fill="#62303a" opacity="0.34"/><circle cx="45.9" cy="213.1" r="0.7" fill="#3a141a" opacity="0.37"/><circle cx="225.4" cy="132.0" r="0.8" fill="#5a2730" opacity="0.43"/><circle cx="178.5" cy="17.2" r="1.1" fill="#5a2730" opacity="0.30"/><circle cx="191.0" cy="69.2" r="0.7" fill="#5a2730" opacity="0.64"/><circle cx="5.7" cy="7.0" r="0.6" fill="#5a2730" opacity="0.53"/><circle cx="167.3" cy="41.2" r="1.0" fill="#62303a" opacity="0.31"/><circle cx="235.3" cy="94.7" r="0.9" fill="#3a141a" opacity="0.32"/><circle cx="38.2" cy="150.7" r="1.1" fill="#3a141a" opacity="0.39"/><circle cx="145.2" cy="24.6" r="0.9" fill="#5a2730" opacity="0.49"/><circle cx="3.9" cy="14.9" r="0.9" fill="#3a141a" opacity="0.67"/><circle cx="1.5" cy="229.2" r="0.8" fill="#3a141a" opacity="0.63"/><circle cx="150.8" cy="109.9" r="0.9" fill="#3a141a" opacity="0.35"/><circle cx="171.5" cy="213.7" r="0.9" fill="#62303a" opacity="0.36"/><circle cx="9.6" cy="236.8" r="0.7" fill="#5a2730" opacity="0.29"/><circle cx="84.9" cy="22.7" r="1.0" fill="#5a2730" opacity="0.59"/><circle cx="19.0" cy="199.4" r="0.9" fill="#62303a" opacity="0.32"/><circle cx="78.2" cy="83.0" r="1.1" fill="#62303a" opacity="0.48"/><circle cx="237.7" cy="150.3" r="0.9" fill="#62303a" opacity="0.54"/><circle cx="40.1" cy="160.0" r="0.6" fill="#62303a" opacity="0.27"/><circle cx="12.2" cy="133.4" r="1.0" fill="#3a141a" opacity="0.48"/><circle cx="43.0" cy="171.4" r="0.9" fill="#62303a" opacity="0.45"/><circle cx="61.5" cy="119.6" r="1.0" fill="#62303a" opacity="0.43"/><circle cx="50.8" cy="22.5" r="1.0" fill="#5a2730" opacity="0.40"/><circle cx="68.2" cy="171.7" r="0.7" fill="#5a2730" opacity="0.44"/><circle cx="216.2" cy="17.7" r="0.7" fill="#3a141a" opacity="0.49"/><circle cx="253.6" cy="235.5" r="0.7" fill="#62303a" opacity="0.56"/><circle cx="64.8" cy="25.4" r="1.2" fill="#62303a" opacity="0.61"/><circle cx="74.7" cy="239.1" r="1.1" fill="#5a2730" opacity="0.31"/><circle cx="17.2" cy="112.0" r="1.0" fill="#3a141a" opacity="0.56"/><circle cx="148.0" cy="249.9" r="0.6" fill="#62303a" opacity="0.61"/><circle cx="19.2" cy="205.3" r="0.7" fill="#3a141a" opacity="0.51"/><circle cx="185.1" cy="89.1" r="1.0" fill="#5a2730" opacity="0.43"/><circle cx="211.8" cy="41.4" r="0.9" fill="#3a141a" opacity="0.25"/><circle cx="23.4" cy="185.9" r="1.1" fill="#62303a" opacity="0.66"/><circle cx="168.7" cy="66.7" r="0.7" fill="#5a2730" opacity="0.29"/><circle cx="56.6" cy="39.2" r="1.1" fill="#3a141a" opacity="0.64"/><circle cx="255.1" cy="81.5" r="1.1" fill="#62303a" opacity="0.64"/><circle cx="150.6" cy="248.2" r="1.0" fill="#62303a" opacity="0.49"/><circle cx="79.7" cy="52.3" r="1.0" fill="#3a141a" opacity="0.42"/><circle cx="130.7" cy="150.5" r="0.7" fill="#5a2730" opacity="0.55"/><circle cx="32.9" cy="5.7" r="0.9" fill="#62303a" opacity="0.33"/><circle cx="136.1" cy="70.6" r="1.1" fill="#62303a" opacity="0.45"/><circle cx="96.0" cy="121.9" r="1.0" fill="#62303a" opacity="0.49"/><circle cx="139.3" cy="75.0" r="1.1" fill="#3a141a" opacity="0.62"/><circle cx="123.5" cy="187.2" r="0.7" fill="#5a2730" opacity="0.64"/><circle cx="181.6" cy="116.5" r="0.7" fill="#5a2730" opacity="0.58"/><circle cx="53.1" cy="59.9" r="1.1" fill="#62303a" opacity="0.58"/><circle cx="65.5" cy="93.8" r="0.6" fill="#62303a" opacity="0.28"/><circle cx="92.3" cy="8.3" r="1.2" fill="#62303a" opacity="0.65"/><circle cx="222.3" cy="78.2" r="1.1" fill="#5a2730" opacity="0.40"/><circle cx="27.8" cy="203.7" r="1.0" fill="#5a2730" opacity="0.30"/><circle cx="50.4" cy="229.5" r="0.6" fill="#3a141a" opacity="0.65"/><circle cx="217.3" cy="222.1" r="0.9" fill="#5a2730" opacity="0.32"/><circle cx="39.4" cy="164.2" r="1.0" fill="#5a2730" opacity="0.38"/><circle cx="236.1" cy="218.3" r="0.8" fill="#3a141a" opacity="0.65"/><circle cx="109.4" cy="49.2" r="1.1" fill="#5a2730" opacity="0.48"/><circle cx="28.5" cy="69.5" r="0.9" fill="#62303a" opacity="0.69"/><circle cx="252.6" cy="100.3" r="0.7" fill="#3a141a" opacity="0.58"/><circle cx="29.2" cy="82.2" r="0.7" fill="#3a141a" opacity="0.53"/><circle cx="48.2" cy="5.2" r="1.0" fill="#62303a" opacity="0.35"/><circle cx="25.2" cy="181.3" r="1.1" fill="#3a141a" opacity="0.36"/><circle cx="150.0" cy="147.1" r="0.8" fill="#3a141a" opacity="0.51"/><circle cx="132.1" cy="217.7" r="0.7" fill="#5a2730" opacity="0.31"/><circle cx="54.5" cy="79.7" r="0.8" fill="#5a2730" opacity="0.26"/><circle cx="58.4" cy="85.0" r="0.8" fill="#62303a" opacity="0.64"/><circle cx="62.4" cy="150.3" r="0.8" fill="#3a141a" opacity="0.48"/><circle cx="140.8" cy="77.8" r="0.9" fill="#62303a" opacity="0.47"/><circle cx="252.7" cy="13.9" r="0.8" fill="#3a141a" opacity="0.52"/><circle cx="44.8" cy="153.4" r="0.9" fill="#5a2730" opacity="0.32"/><circle cx="244.8" cy="250.6" r="1.1" fill="#62303a" opacity="0.45"/><circle cx="254.2" cy="23.3" r="0.9" fill="#3a141a" opacity="0.56"/><circle cx="17.3" cy="231.7" r="0.7" fill="#3a141a" opacity="0.44"/><circle cx="130.0" cy="74.1" r="1.0" fill="#62303a" opacity="0.42"/><circle cx="182.5" cy="25.7" r="0.9" fill="#3a141a" opacity="0.42"/><circle cx="220.5" cy="53.6" r="1.1" fill="#5a2730" opacity="0.63"/><circle cx="154.1" cy="143.2" r="0.8" fill="#3a141a" opacity="0.53"/><circle cx="183.4" cy="215.9" r="0.8" fill="#62303a" opacity="0.54"/><circle cx="35.2" cy="172.5" r="0.7" fill="#3a141a" opacity="0.44"/><circle cx="245.0" cy="92.4" r="0.8" fill="#3a141a" opacity="0.70"/><circle cx="50.6" cy="136.1" r="0.8" fill="#5a2730" opacity="0.35"/><circle cx="202.2" cy="117.1" r="1.1" fill="#5a2730" opacity="0.62"/><circle cx="14.9" cy="96.4" r="1.1" fill="#5a2730" opacity="0.56"/><circle cx="173.0" cy="127.2" r="0.9" fill="#3a141a" opacity="0.49"/><circle cx="17.3" cy="44.7" r="0.7" fill="#62303a" opacity="0.48"/><circle cx="179.7" cy="197.2" r="1.0" fill="#5a2730" opacity="0.38"/><circle cx="136.8" cy="183.4" r="1.0" fill="#3a141a" opacity="0.31"/><circle cx="79.0" cy="173.7" r="0.9" fill="#62303a" opacity="0.60"/><circle cx="240.7" cy="213.4" r="1.0" fill="#62303a" opacity="0.62"/><circle cx="145.1" cy="192.8" r="0.8" fill="#5a2730" opacity="0.50"/><circle cx="42.0" cy="15.2" r="1.2" fill="#3a141a" opacity="0.53"/><circle cx="8.5" cy="239.1" r="1.2" fill="#62303a" opacity="0.32"/><circle cx="206.4" cy="18.0" r="1.1" fill="#62303a" opacity="0.26"/><circle cx="158.4" cy="58.8" r="0.7" fill="#62303a" opacity="0.45"/><circle cx="61.1" cy="46.7" r="0.8" fill="#62303a" opacity="0.40"/><circle cx="6.7" cy="86.2" r="0.6" fill="#3a141a" opacity="0.26"/><circle cx="184.2" cy="13.0" r="1.0" fill="#62303a" opacity="0.38"/><circle cx="235.5" cy="231.8" r="1.1" fill="#5a2730" opacity="0.52"/><circle cx="248.5" cy="141.6" r="0.6" fill="#3a141a" opacity="0.58"/><circle cx="58.3" cy="23.4" r="1.2" fill="#62303a" opacity="0.47"/><circle cx="153.8" cy="226.1" r="0.8" fill="#62303a" opacity="0.46"/><circle cx="201.2" cy="116.7" r="0.7" fill="#3a141a" opacity="0.38"/><circle cx="190.7" cy="212.8" r="0.7" fill="#62303a" opacity="0.39"/><circle cx="11.7" cy="24.3" r="0.9" fill="#5a2730" opacity="0.46"/><circle cx="89.1" cy="124.1" r="1.0" fill="#62303a" opacity="0.61"/><circle cx="181.2" cy="102.7" r="0.7" fill="#5a2730" opacity="0.58"/><circle cx="168.4" cy="103.9" r="0.9" fill="#3a141a" opacity="0.44"/><circle cx="47.2" cy="248.5" r="0.7" fill="#3a141a" opacity="0.54"/><circle cx="63.7" cy="146.2" r="1.1" fill="#5a2730" opacity="0.37"/><circle cx="162.7" cy="123.5" r="0.8" fill="#62303a" opacity="0.63"/><circle cx="80.8" cy="206.7" r="1.1" fill="#5a2730" opacity="0.36"/><circle cx="212.7" cy="141.3" r="1.0" fill="#62303a" opacity="0.65"/><circle cx="179.4" cy="43.5" r="1.0" fill="#3a141a" opacity="0.60"/><circle cx="173.6" cy="208.7" r="0.9" fill="#62303a" opacity="0.57"/><circle cx="111.8" cy="217.0" r="0.7" fill="#3a141a" opacity="0.48"/><circle cx="38.2" cy="56.6" r="1.1" fill="#5a2730" opacity="0.37"/><circle cx="25.5" cy="184.8" r="1.1" fill="#3a141a" opacity="0.46"/><circle cx="137.7" cy="112.6" r="0.9" fill="#3a141a" opacity="0.26"/><circle cx="238.1" cy="51.0" r="0.6" fill="#62303a" opacity="0.51"/><circle cx="137.7" cy="55.7" r="1.1" fill="#5a2730" opacity="0.53"/><circle cx="152.2" cy="240.5" r="0.7" fill="#5a2730" opacity="0.42"/><circle cx="122.9" cy="16.7" r="1.0" fill="#62303a" opacity="0.39"/><circle cx="64.6" cy="208.0" r="1.1" fill="#3a141a" opacity="0.63"/><circle cx="222.8" cy="12.9" r="0.7" fill="#3a141a" opacity="0.37"/><circle cx="213.4" cy="67.3" r="0.7" fill="#3a141a" opacity="0.39"/><circle cx="118.1" cy="95.1" r="1.1" fill="#62303a" opacity="0.44"/><circle cx="193.1" cy="221.0" r="0.7" fill="#62303a" opacity="0.30"/><circle cx="178.5" cy="199.8" r="1.2" fill="#3a141a" opacity="0.41"/><circle cx="80.2" cy="99.4" r="1.0" fill="#62303a" opacity="0.43"/><circle cx="80.0" cy="18.6" r="1.2" fill="#62303a" opacity="0.59"/><circle cx="173.3" cy="149.7" r="0.9" fill="#5a2730" opacity="0.37"/><circle cx="212.0" cy="231.9" r="1.1" fill="#3a141a" opacity="0.55"/><circle cx="143.3" cy="118.1" r="0.9" fill="#3a141a" opacity="0.70"/><circle cx="130.2" cy="30.3" r="1.0" fill="#5a2730" opacity="0.69"/><circle cx="3.4" cy="160.5" r="1.0" fill="#3a141a" opacity="0.46"/><circle cx="33.5" cy="76.9" r="1.0" fill="#62303a" opacity="0.67"/><circle cx="36.5" cy="100.6" r="0.6" fill="#5a2730" opacity="0.26"/><circle cx="113.1" cy="83.2" r="1.0" fill="#5a2730" opacity="0.28"/><circle cx="12.4" cy="20.2" r="0.6" fill="#5a2730" opacity="0.39"/><circle cx="139.7" cy="206.9" r="0.7" fill="#62303a" opacity="0.54"/><circle cx="254.9" cy="76.5" r="1.1" fill="#5a2730" opacity="0.57"/><circle cx="157.7" cy="163.0" r="1.0" fill="#3a141a" opacity="0.30"/><circle cx="118.8" cy="124.7" r="0.9" fill="#3a141a" opacity="0.45"/><circle cx="58.4" cy="248.0" r="0.8" fill="#62303a" opacity="0.57"/><circle cx="97.0" cy="132.9" r="0.9" fill="#3a141a" opacity="0.51"/><circle cx="166.8" cy="67.2" r="1.2" fill="#3a141a" opacity="0.45"/><circle cx="195.3" cy="70.7" r="0.7" fill="#62303a" opacity="0.33"/><circle cx="38.1" cy="69.8" r="1.1" fill="#3a141a" opacity="0.50"/><circle cx="106.6" cy="8.7" r="0.9" fill="#5a2730" opacity="0.66"/><circle cx="112.6" cy="195.3" r="0.7" fill="#3a141a" opacity="0.43"/><circle cx="129.6" cy="209.4" r="1.1" fill="#5a2730" opacity="0.31"/><circle cx="121.2" cy="4.0" r="0.7" fill="#3a141a" opacity="0.54"/><circle cx="208.7" cy="141.5" r="1.0" fill="#3a141a" opacity="0.31"/><circle cx="210.2" cy="106.7" r="0.8" fill="#3a141a" opacity="0.39"/><circle cx="246.9" cy="144.2" r="1.2" fill="#62303a" opacity="0.68"/><circle cx="104.5" cy="153.0" r="1.1" fill="#3a141a" opacity="0.44"/><circle cx="146.5" cy="55.0" r="1.1" fill="#5a2730" opacity="0.55"/><circle cx="74.1" cy="147.1" r="0.6" fill="#5a2730" opacity="0.51"/><circle cx="76.6" cy="70.4" r="1.0" fill="#3a141a" opacity="0.29"/><circle cx="132.2" cy="87.1" r="0.8" fill="#5a2730" opacity="0.48"/><circle cx="129.0" cy="184.2" r="0.8" fill="#5a2730" opacity="0.66"/><circle cx="131.3" cy="152.3" r="1.0" fill="#3a141a" opacity="0.70"/><circle cx="241.5" cy="65.8" r="1.1" fill="#62303a" opacity="0.61"/><circle cx="34.5" cy="140.2" r="0.7" fill="#62303a" opacity="0.26"/><circle cx="65.9" cy="180.1" r="0.8" fill="#62303a" opacity="0.53"/><circle cx="49.7" cy="118.4" r="1.0" fill="#3a141a" opacity="0.39"/><circle cx="205.1" cy="47.2" r="1.0" fill="#62303a" opacity="0.56"/><circle cx="11.0" cy="48.9" r="1.2" fill="#5a2730" opacity="0.56"/><circle cx="50.1" cy="170.6" r="0.9" fill="#62303a" opacity="0.38"/><circle cx="168.5" cy="102.4" r="0.8" fill="#5a2730" opacity="0.68"/><circle cx="247.0" cy="199.0" r="1.2" fill="#5a2730" opacity="0.27"/><circle cx="20.9" cy="174.9" r="0.6" fill="#62303a" opacity="0.67"/><circle cx="213.3" cy="225.1" r="0.8" fill="#5a2730" opacity="0.46"/><circle cx="80.0" cy="94.3" r="1.1" fill="#3a141a" opacity="0.63"/><circle cx="171.4" cy="43.6" r="0.7" fill="#62303a" opacity="0.49"/><circle cx="122.5" cy="221.4" r="0.9" fill="#3a141a" opacity="0.57"/><circle cx="57.3" cy="217.1" r="0.8" fill="#5a2730" opacity="0.39"/><circle cx="68.5" cy="101.1" r="0.6" fill="#5a2730" opacity="0.35"/><circle cx="119.4" cy="112.8" r="1.0" fill="#3a141a" opacity="0.29"/><circle cx="242.0" cy="103.2" r="0.7" fill="#62303a" opacity="0.29"/><circle cx="181.7" cy="149.0" r="0.9" fill="#3a141a" opacity="0.45"/><circle cx="54.5" cy="15.0" r="0.9" fill="#3a141a" opacity="0.65"/><circle cx="31.9" cy="217.1" r="0.6" fill="#62303a" opacity="0.51"/><circle cx="226.4" cy="124.2" r="0.7" fill="#5a2730" opacity="0.32"/><circle cx="138.2" cy="68.1" r="0.8" fill="#3a141a" opacity="0.29"/><circle cx="251.8" cy="201.2" r="1.0" fill="#5a2730" opacity="0.52"/><circle cx="236.0" cy="208.0" r="0.9" fill="#5a2730" opacity="0.27"/><circle cx="128.2" cy="129.8" r="0.6" fill="#5a2730" opacity="0.57"/><circle cx="238.4" cy="165.3" r="1.0" fill="#5a2730" opacity="0.60"/><circle cx="114.0" cy="118.2" r="1.1" fill="#5a2730" opacity="0.66"/><circle cx="176.3" cy="44.9" r="0.7" fill="#62303a" opacity="0.56"/><circle cx="228.5" cy="32.7" r="0.7" fill="#5a2730" opacity="0.55"/><circle cx="48.1" cy="85.3" r="1.0" fill="#5a2730" opacity="0.61"/><circle cx="161.7" cy="44.4" r="1.2" fill="#3a141a" opacity="0.45"/><circle cx="17.2" cy="7.9" r="1.1" fill="#62303a" opacity="0.44"/><circle cx="244.3" cy="105.9" r="1.1" fill="#3a141a" opacity="0.51"/><circle cx="60.9" cy="78.0" r="0.9" fill="#5a2730" opacity="0.28"/><circle cx="225.8" cy="2.4" r="0.6" fill="#5a2730" opacity="0.34"/><circle cx="85.9" cy="3.1" r="0.7" fill="#3a141a" opacity="0.63"/><circle cx="219.8" cy="125.4" r="0.9" fill="#5a2730" opacity="0.63"/><circle cx="150.0" cy="148.6" r="0.6" fill="#5a2730" opacity="0.53"/><circle cx="104.8" cy="245.4" r="0.9" fill="#62303a" opacity="0.42"/><circle cx="125.9" cy="103.5" r="0.7" fill="#62303a" opacity="0.44"/><circle cx="129.2" cy="6.4" r="1.0" fill="#5a2730" opacity="0.64"/><circle cx="252.6" cy="194.2" r="0.6" fill="#5a2730" opacity="0.55"/><circle cx="70.8" cy="235.5" r="1.1" fill="#3a141a" opacity="0.41"/><circle cx="119.9" cy="26.5" r="1.0" fill="#62303a" opacity="0.53"/><circle cx="84.9" cy="139.0" r="1.2" fill="#62303a" opacity="0.43"/><circle cx="227.1" cy="204.5" r="1.0" fill="#5a2730" opacity="0.46"/><circle cx="141.4" cy="186.1" r="1.2" fill="#62303a" opacity="0.58"/><circle cx="77.8" cy="231.0" r="0.6" fill="#5a2730" opacity="0.68"/><circle cx="3.6" cy="82.0" r="1.1" fill="#3a141a" opacity="0.59"/><circle cx="62.6" cy="233.1" r="0.7" fill="#5a2730" opacity="0.36"/><circle cx="97.6" cy="58.0" r="1.0" fill="#62303a" opacity="0.69"/><circle cx="197.0" cy="157.3" r="0.7" fill="#3a141a" opacity="0.36"/><circle cx="132.1" cy="98.7" r="0.8" fill="#5a2730" opacity="0.33"/><circle cx="143.0" cy="198.2" r="1.2" fill="#3a141a" opacity="0.49"/><circle cx="203.8" cy="13.4" r="0.7" fill="#3a141a" opacity="0.43"/><circle cx="140.2" cy="237.6" r="0.6" fill="#5a2730" opacity="0.28"/><circle cx="97.2" cy="238.2" r="0.9" fill="#3a141a" opacity="0.51"/><circle cx="31.2" cy="205.2" r="0.9" fill="#3a141a" opacity="0.47"/><circle cx="214.3" cy="30.9" r="1.1" fill="#3a141a" opacity="0.61"/><circle cx="58.7" cy="0.3" r="1.1" fill="#5a2730" opacity="0.29"/><circle cx="196.2" cy="197.9" r="1.0" fill="#5a2730" opacity="0.69"/><circle cx="33.1" cy="47.4" r="1.0" fill="#5a2730" opacity="0.56"/><circle cx="217.3" cy="145.1" r="0.8" fill="#5a2730" opacity="0.52"/><circle cx="47.0" cy="157.4" r="0.8" fill="#3a141a" opacity="0.36"/><circle cx="178.5" cy="172.3" r="0.7" fill="#5a2730" opacity="0.59"/><circle cx="78.4" cy="25.1" r="0.8" fill="#62303a" opacity="0.46"/><circle cx="208.7" cy="40.9" r="0.7" fill="#5a2730" opacity="0.43"/><circle cx="46.0" cy="53.1" r="1.2" fill="#3a141a" opacity="0.29"/><circle cx="170.9" cy="21.4" r="0.7" fill="#62303a" opacity="0.27"/><circle cx="241.5" cy="160.2" r="0.7" fill="#5a2730" opacity="0.40"/><circle cx="62.0" cy="201.9" r="1.0" fill="#5a2730" opacity="0.49"/><circle cx="179.0" cy="32.6" r="0.8" fill="#5a2730" opacity="0.44"/><circle cx="74.7" cy="30.0" r="0.9" fill="#5a2730" opacity="0.38"/><circle cx="221.2" cy="163.5" r="0.9" fill="#5a2730" opacity="0.53"/><circle cx="22.9" cy="30.4" r="0.6" fill="#5a2730" opacity="0.64"/><circle cx="65.6" cy="66.2" r="0.7" fill="#62303a" opacity="0.57"/><circle cx="164.1" cy="130.9" r="0.7" fill="#3a141a" opacity="0.47"/><circle cx="97.9" cy="214.9" r="1.1" fill="#5a2730" opacity="0.54"/><circle cx="142.6" cy="185.2" r="0.7" fill="#5a2730" opacity="0.55"/><circle cx="78.8" cy="131.8" r="0.8" fill="#5a2730" opacity="0.62"/><circle cx="73.7" cy="223.0" r="1.1" fill="#62303a" opacity="0.47"/><circle cx="246.9" cy="35.6" r="1.2" fill="#62303a" opacity="0.48"/><circle cx="4.1" cy="181.6" r="1.1" fill="#5a2730" opacity="0.63"/><circle cx="209.8" cy="95.8" r="1.1" fill="#3a141a" opacity="0.44"/><circle cx="5.2" cy="254.9" r="1.0" fill="#62303a" opacity="0.61"/><circle cx="187.1" cy="22.8" r="1.2" fill="#3a141a" opacity="0.39"/><circle cx="51.9" cy="95.1" r="1.0" fill="#62303a" opacity="0.68"/><circle cx="162.1" cy="93.6" r="0.7" fill="#3a141a" opacity="0.39"/><circle cx="29.4" cy="191.8" r="1.1" fill="#5a2730" opacity="0.55"/><circle cx="146.0" cy="162.0" r="0.7" fill="#62303a" opacity="0.52"/><circle cx="138.9" cy="109.0" r="0.8" fill="#5a2730" opacity="0.70"/><circle cx="187.2" cy="9.5" r="0.9" fill="#62303a" opacity="0.34"/><circle cx="13.7" cy="40.7" r="0.8" fill="#3a141a" opacity="0.65"/><circle cx="60.5" cy="199.8" r="0.9" fill="#62303a" opacity="0.43"/><circle cx="19.7" cy="187.4" r="0.7" fill="#3a141a" opacity="0.56"/><circle cx="97.4" cy="235.3" r="1.1" fill="#5a2730" opacity="0.41"/><circle cx="36.3" cy="83.1" r="0.9" fill="#3a141a" opacity="0.27"/><circle cx="124.7" cy="8.8" r="1.0" fill="#62303a" opacity="0.58"/><circle cx="95.1" cy="252.0" r="0.8" fill="#5a2730" opacity="0.33"/><circle cx="208.8" cy="116.0" r="1.0" fill="#5a2730" opacity="0.59"/><circle cx="34.4" cy="183.0" r="1.1" fill="#62303a" opacity="0.28"/><circle cx="77.7" cy="92.8" r="0.8" fill="#3a141a" opacity="0.54"/><circle cx="25.6" cy="85.6" r="0.7" fill="#5a2730" opacity="0.26"/><circle cx="113.8" cy="222.4" r="1.1" fill="#62303a" opacity="0.42"/><circle cx="127.8" cy="146.6" r="0.7" fill="#3a141a" opacity="0.58"/><circle cx="89.6" cy="194.7" r="0.9" fill="#62303a" opacity="0.69"/><circle cx="96.9" cy="252.6" r="0.6" fill="#3a141a" opacity="0.52"/><circle cx="177.3" cy="161.4" r="1.0" fill="#5a2730" opacity="0.34"/><circle cx="200.7" cy="140.9" r="1.1" fill="#5a2730" opacity="0.69"/><circle cx="120.2" cy="227.5" r="0.8" fill="#3a141a" opacity="0.56"/><circle cx="74.8" cy="176.2" r="0.7" fill="#5a2730" opacity="0.61"/><circle cx="159.8" cy="216.6" r="0.8" fill="#5a2730" opacity="0.52"/><circle cx="186.6" cy="50.6" r="0.8" fill="#5a2730" opacity="0.26"/><circle cx="76.0" cy="234.3" r="0.7" fill="#3a141a" opacity="0.33"/><circle cx="187.3" cy="29.9" r="1.1" fill="#3a141a" opacity="0.68"/><circle cx="77.7" cy="194.6" r="0.8" fill="#62303a" opacity="0.65"/><circle cx="240.2" cy="72.5" r="1.0" fill="#62303a" opacity="0.66"/><circle cx="88.0" cy="168.5" r="1.2" fill="#62303a" opacity="0.26"/><circle cx="84.5" cy="82.2" r="0.7" fill="#5a2730" opacity="0.37"/><circle cx="87.6" cy="186.8" r="1.0" fill="#5a2730" opacity="0.26"/><circle cx="230.3" cy="69.7" r="0.7" fill="#3a141a" opacity="0.54"/><circle cx="87.6" cy="130.1" r="0.9" fill="#3a141a" opacity="0.51"/><circle cx="114.2" cy="78.1" r="0.9" fill="#62303a" opacity="0.27"/><circle cx="107.7" cy="159.5" r="0.8" fill="#3a141a" opacity="0.46"/><circle cx="84.4" cy="34.3" r="1.1" fill="#62303a" opacity="0.56"/><circle cx="60.3" cy="63.4" r="0.7" fill="#3a141a" opacity="0.57"/><circle cx="61.0" cy="137.1" r="1.1" fill="#5a2730" opacity="0.64"/><circle cx="95.6" cy="14.8" r="1.0" fill="#3a141a" opacity="0.44"/><circle cx="251.5" cy="48.0" r="1.0" fill="#3a141a" opacity="0.29"/><circle cx="89.4" cy="124.3" r="0.9" fill="#3a141a" opacity="0.68"/><circle cx="161.6" cy="132.3" r="0.7" fill="#5a2730" opacity="0.31"/><circle cx="55.7" cy="195.8" r="0.9" fill="#5a2730" opacity="0.40"/><circle cx="101.9" cy="245.1" r="0.8" fill="#5a2730" opacity="0.65"/><circle cx="51.3" cy="139.7" r="1.2" fill="#3a141a" opacity="0.56"/><circle cx="117.9" cy="247.4" r="0.7" fill="#3a141a" opacity="0.40"/><circle cx="38.3" cy="48.8" r="0.9" fill="#62303a" opacity="0.39"/><circle cx="175.3" cy="105.1" r="1.1" fill="#3a141a" opacity="0.38"/><circle cx="160.1" cy="206.2" r="0.9" fill="#5a2730" opacity="0.62"/><circle cx="77.1" cy="139.6" r="0.6" fill="#5a2730" opacity="0.33"/><circle cx="52.3" cy="88.1" r="0.9" fill="#3a141a" opacity="0.69"/><circle cx="242.4" cy="244.9" r="0.6" fill="#62303a" opacity="0.63"/><circle cx="11.2" cy="32.4" r="0.9" fill="#5a2730" opacity="0.45"/><circle cx="152.3" cy="208.6" r="0.8" fill="#3a141a" opacity="0.43"/><circle cx="144.8" cy="135.2" r="0.8" fill="#5a2730" opacity="0.70"/><circle cx="189.4" cy="53.7" r="0.7" fill="#62303a" opacity="0.55"/><circle cx="149.3" cy="33.6" r="0.8" fill="#3a141a" opacity="0.45"/><circle cx="178.5" cy="129.5" r="1.2" fill="#5a2730" opacity="0.68"/><circle cx="215.3" cy="187.3" r="0.6" fill="#62303a" opacity="0.31"/><circle cx="197.4" cy="44.8" r="1.1" fill="#5a2730" opacity="0.61"/><circle cx="33.7" cy="224.3" r="0.9" fill="#5a2730" opacity="0.29"/><circle cx="29.5" cy="237.4" r="0.8" fill="#3a141a" opacity="0.65"/><circle cx="130.9" cy="131.2" r="1.2" fill="#3a141a" opacity="0.31"/><circle cx="23.6" cy="59.2" r="0.7" fill="#3a141a" opacity="0.44"/><circle cx="8.9" cy="235.7" r="0.9" fill="#62303a" opacity="0.56"/><circle cx="186.8" cy="194.2" r="0.8" fill="#62303a" opacity="0.53"/><circle cx="36.7" cy="174.4" r="0.9" fill="#5a2730" opacity="0.33"/><circle cx="88.1" cy="211.0" r="1.1" fill="#3a141a" opacity="0.58"/><circle cx="112.9" cy="30.0" r="1.0" fill="#5a2730" opacity="0.54"/><circle cx="199.6" cy="132.1" r="0.9" fill="#62303a" opacity="0.54"/><circle cx="167.9" cy="150.7" r="0.9" fill="#5a2730" opacity="0.51"/><circle cx="33.0" cy="109.0" r="0.9" fill="#5a2730" opacity="0.36"/><circle cx="133.0" cy="132.4" r="0.7" fill="#5a2730" opacity="0.42"/><circle cx="248.8" cy="23.1" r="0.6" fill="#62303a" opacity="0.30"/><circle cx="126.9" cy="44.8" r="0.7" fill="#3a141a" opacity="0.36"/><circle cx="3.9" cy="223.7" r="1.2" fill="#5a2730" opacity="0.64"/><circle cx="172.4" cy="232.9" r="1.1" fill="#3a141a" opacity="0.63"/><circle cx="61.7" cy="65.2" r="1.0" fill="#5a2730" opacity="0.45"/><circle cx="29.9" cy="47.7" r="1.1" fill="#5a2730" opacity="0.30"/><circle cx="152.0" cy="252.2" r="1.0" fill="#5a2730" opacity="0.66"/><circle cx="247.8" cy="108.7" r="0.7" fill="#62303a" opacity="0.61"/><circle cx="170.4" cy="121.2" r="1.1" fill="#62303a" opacity="0.31"/><circle cx="178.2" cy="2.0" r="0.8" fill="#62303a" opacity="0.67"/><circle cx="186.9" cy="31.2" r="0.7" fill="#5a2730" opacity="0.35"/><circle cx="228.7" cy="23.1" r="1.0" fill="#3a141a" opacity="0.58"/><circle cx="132.6" cy="247.5" r="1.0" fill="#3a141a" opacity="0.40"/><circle cx="155.2" cy="28.4" r="0.8" fill="#62303a" opacity="0.33"/><circle cx="128.1" cy="215.8" r="0.9" fill="#5a2730" opacity="0.50"/><circle cx="43.8" cy="78.4" r="1.0" fill="#62303a" opacity="0.37"/><circle cx="233.5" cy="175.1" r="0.9" fill="#62303a" opacity="0.32"/><circle cx="67.1" cy="112.3" r="1.1" fill="#3a141a" opacity="0.51"/><circle cx="113.7" cy="224.4" r="1.0" fill="#3a141a" opacity="0.43"/><circle cx="194.5" cy="103.4" r="0.9" fill="#5a2730" opacity="0.32"/><circle cx="93.5" cy="12.4" r="1.1" fill="#62303a" opacity="0.36"/><circle cx="250.3" cy="134.5" r="1.0" fill="#5a2730" opacity="0.69"/><circle cx="211.4" cy="32.9" r="1.1" fill="#62303a" opacity="0.62"/><circle cx="131.3" cy="152.9" r="0.7" fill="#62303a" opacity="0.40"/><circle cx="174.5" cy="139.1" r="0.6" fill="#62303a" opacity="0.59"/><circle cx="47.7" cy="246.3" r="0.7" fill="#3a141a" opacity="0.62"/><circle cx="140.8" cy="83.7" r="0.7" fill="#5a2730" opacity="0.62"/><circle cx="201.5" cy="173.4" r="1.0" fill="#3a141a" opacity="0.56"/><circle cx="226.5" cy="167.4" r="0.7" fill="#3a141a" opacity="0.26"/><circle cx="145.0" cy="221.6" r="0.6" fill="#62303a" opacity="0.51"/><circle cx="110.0" cy="62.0" r="1.2" fill="#5a2730" opacity="0.45"/><circle cx="217.2" cy="78.2" r="1.2" fill="#3a141a" opacity="0.43"/><circle cx="199.6" cy="200.3" r="0.9" fill="#62303a" opacity="0.30"/><circle cx="50.9" cy="206.3" r="1.2" fill="#62303a" opacity="0.57"/><circle cx="82.9" cy="70.2" r="1.0" fill="#3a141a" opacity="0.69"/><circle cx="11.1" cy="156.8" r="0.8" fill="#3a141a" opacity="0.54"/><circle cx="87.0" cy="68.9" r="1.0" fill="#62303a" opacity="0.68"/><circle cx="132.1" cy="75.6" r="0.9" fill="#3a141a" opacity="0.50"/><circle cx="7.9" cy="94.2" r="0.9" fill="#3a141a" opacity="0.50"/><circle cx="186.1" cy="228.9" r="0.9" fill="#3a141a" opacity="0.42"/><circle cx="22.0" cy="166.5" r="1.1" fill="#3a141a" opacity="0.52"/><circle cx="200.2" cy="33.0" r="0.8" fill="#62303a" opacity="0.68"/><circle cx="129.7" cy="40.4" r="1.1" fill="#62303a" opacity="0.32"/><circle cx="168.7" cy="81.7" r="0.7" fill="#3a141a" opacity="0.45"/><circle cx="46.2" cy="77.6" r="0.7" fill="#5a2730" opacity="0.50"/><circle cx="103.4" cy="204.8" r="0.7" fill="#5a2730" opacity="0.52"/><circle cx="117.0" cy="191.2" r="0.7" fill="#62303a" opacity="0.50"/><circle cx="160.7" cy="222.1" r="0.9" fill="#62303a" opacity="0.29"/><circle cx="224.0" cy="82.4" r="0.8" fill="#62303a" opacity="0.29"/><circle cx="46.1" cy="239.9" r="0.9" fill="#5a2730" opacity="0.39"/><circle cx="37.2" cy="195.0" r="1.0" fill="#5a2730" opacity="0.41"/><circle cx="166.8" cy="236.5" r="0.9" fill="#62303a" opacity="0.62"/><circle cx="87.0" cy="82.2" r="0.9" fill="#62303a" opacity="0.39"/><circle cx="14.2" cy="182.1" r="0.9" fill="#62303a" opacity="0.64"/><circle cx="194.6" cy="142.2" r="0.8" fill="#5a2730" opacity="0.31"/><circle cx="18.0" cy="222.2" r="1.0" fill="#62303a" opacity="0.34"/><circle cx="246.8" cy="10.0" r="1.1" fill="#62303a" opacity="0.38"/><circle cx="234.7" cy="46.2" r="1.1" fill="#62303a" opacity="0.29"/><circle cx="235.5" cy="26.3" r="0.7" fill="#62303a" opacity="0.45"/><circle cx="159.5" cy="212.4" r="0.6" fill="#3a141a" opacity="0.27"/><circle cx="2.7" cy="60.6" r="1.1" fill="#3a141a" opacity="0.42"/><circle cx="225.3" cy="38.2" r="1.1" fill="#62303a" opacity="0.51"/><circle cx="247.9" cy="207.1" r="0.6" fill="#3a141a" opacity="0.56"/><circle cx="77.9" cy="187.3" r="0.9" fill="#3a141a" opacity="0.41"/><circle cx="225.7" cy="175.3" r="0.9" fill="#62303a" opacity="0.52"/><circle cx="169.2" cy="84.8" r="1.0" fill="#62303a" opacity="0.65"/><circle cx="182.8" cy="125.3" r="1.1" fill="#3a141a" opacity="0.25"/><circle cx="122.4" cy="212.0" r="0.8" fill="#62303a" opacity="0.70"/><circle cx="166.0" cy="11.6" r="0.7" fill="#3a141a" opacity="0.29"/><circle cx="102.5" cy="59.6" r="1.0" fill="#62303a" opacity="0.29"/><circle cx="232.7" cy="214.6" r="0.9" fill="#5a2730" opacity="0.51"/><circle cx="135.8" cy="138.1" r="0.9" fill="#62303a" opacity="0.35"/><circle cx="110.3" cy="105.8" r="0.9" fill="#62303a" opacity="0.31"/><circle cx="108.2" cy="252.4" r="1.1" fill="#3a141a" opacity="0.35"/><circle cx="56.8" cy="6.0" r="0.8" fill="#3a141a" opacity="0.26"/><circle cx="107.1" cy="235.4" r="1.1" fill="#5a2730" opacity="0.52"/><circle cx="76.8" cy="188.1" r="1.0" fill="#62303a" opacity="0.33"/><circle cx="116.3" cy="219.4" r="0.8" fill="#3a141a" opacity="0.46"/><circle cx="157.8" cy="47.6" r="1.1" fill="#3a141a" opacity="0.63"/><circle cx="208.9" cy="125.0" r="0.7" fill="#5a2730" opacity="0.42"/><circle cx="156.5" cy="154.2" r="0.8" fill="#62303a" opacity="0.41"/><circle cx="89.4" cy="153.0" r="0.7" fill="#5a2730" opacity="0.40"/><circle cx="183.7" cy="208.9" r="0.7" fill="#3a141a" opacity="0.52"/><circle cx="211.4" cy="16.1" r="0.9" fill="#62303a" opacity="0.39"/><circle cx="56.3" cy="128.5" r="0.6" fill="#3a141a" opacity="0.70"/><circle cx="136.9" cy="245.0" r="0.8" fill="#3a141a" opacity="0.28"/><circle cx="136.5" cy="178.2" r="1.0" fill="#3a141a" opacity="0.51"/><circle cx="239.1" cy="242.4" r="1.1" fill="#5a2730" opacity="0.66"/><circle cx="193.9" cy="88.7" r="0.6" fill="#5a2730" opacity="0.36"/><circle cx="94.0" cy="148.9" r="0.7" fill="#62303a" opacity="0.49"/><circle cx="117.4" cy="152.1" r="0.8" fill="#62303a" opacity="0.56"/><circle cx="89.2" cy="36.8" r="0.6" fill="#5a2730" opacity="0.45"/><circle cx="60.4" cy="45.7" r="1.0" fill="#5a2730" opacity="0.67"/><circle cx="87.1" cy="209.8" r="0.9" fill="#5a2730" opacity="0.43"/><circle cx="143.1" cy="217.3" r="0.7" fill="#3a141a" opacity="0.49"/><circle cx="219.4" cy="14.7" r="1.1" fill="#5a2730" opacity="0.40"/><circle cx="104.5" cy="216.7" r="0.8" fill="#3a141a" opacity="0.25"/><circle cx="23.7" cy="182.6" r="0.7" fill="#5a2730" opacity="0.45"/><circle cx="151.7" cy="173.9" r="1.0" fill="#62303a" opacity="0.25"/><circle cx="193.1" cy="153.3" r="0.8" fill="#3a141a" opacity="0.28"/><circle cx="67.4" cy="61.9" r="0.7" fill="#5a2730" opacity="0.34"/><circle cx="19.2" cy="177.8" r="0.7" fill="#3a141a" opacity="0.29"/><circle cx="149.7" cy="29.0" r="0.9" fill="#5a2730" opacity="0.67"/><circle cx="203.6" cy="120.6" r="0.7" fill="#5a2730" opacity="0.61"/><circle cx="47.2" cy="26.0" r="1.0" fill="#5a2730" opacity="0.50"/><circle cx="126.5" cy="18.8" r="0.7" fill="#5a2730" opacity="0.63"/><circle cx="21.5" cy="173.1" r="0.8" fill="#5a2730" opacity="0.42"/><circle cx="35.0" cy="221.4" r="0.9" fill="#5a2730" opacity="0.38"/><circle cx="24.4" cy="153.6" r="1.1" fill="#3a141a" opacity="0.40"/><circle cx="57.0" cy="161.4" r="1.0" fill="#3a141a" opacity="0.45"/><circle cx="209.3" cy="219.7" r="0.9" fill="#5a2730" opacity="0.45"/><circle cx="167.0" cy="221.8" r="0.7" fill="#5a2730" opacity="0.63"/><circle cx="84.8" cy="18.2" r="0.7" fill="#3a141a" opacity="0.59"/><circle cx="161.4" cy="238.0" r="1.0" fill="#3a141a" opacity="0.43"/><circle cx="148.4" cy="133.5" r="0.7" fill="#62303a" opacity="0.67"/><circle cx="32.3" cy="193.5" r="0.8" fill="#5a2730" opacity="0.68"/><circle cx="91.6" cy="158.7" r="0.9" fill="#5a2730" opacity="0.34"/><circle cx="231.1" cy="241.0" r="1.2" fill="#62303a" opacity="0.65"/><circle cx="128.2" cy="9.4" r="0.8" fill="#62303a" opacity="0.57"/><circle cx="243.5" cy="6.3" r="1.2" fill="#62303a" opacity="0.63"/><circle cx="191.0" cy="91.2" r="1.1" fill="#3a141a" opacity="0.66"/><circle cx="188.3" cy="179.2" r="0.7" fill="#3a141a" opacity="0.32"/><circle cx="213.4" cy="182.8" r="0.9" fill="#62303a" opacity="0.37"/><circle cx="235.7" cy="136.2" r="0.6" fill="#5a2730" opacity="0.65"/><circle cx="4.6" cy="197.3" r="0.6" fill="#5a2730" opacity="0.62"/><circle cx="1.1" cy="106.9" r="0.7" fill="#62303a" opacity="0.47"/><circle cx="214.3" cy="23.4" r="1.1" fill="#5a2730" opacity="0.26"/><circle cx="23.8" cy="215.6" r="1.1" fill="#62303a" opacity="0.68"/><circle cx="101.3" cy="56.7" r="1.0" fill="#62303a" opacity="0.25"/><circle cx="251.6" cy="106.2" r="1.1" fill="#62303a" opacity="0.51"/><circle cx="252.7" cy="198.3" r="1.2" fill="#3a141a" opacity="0.29"/><circle cx="192.2" cy="57.9" r="0.8" fill="#5a2730" opacity="0.43"/><circle cx="220.2" cy="88.5" r="1.0" fill="#62303a" opacity="0.70"/><circle cx="127.0" cy="179.7" r="0.9" fill="#3a141a" opacity="0.40"/><circle cx="105.8" cy="190.6" r="1.0" fill="#3a141a" opacity="0.39"/><circle cx="217.2" cy="188.7" r="0.9" fill="#5a2730" opacity="0.67"/><circle cx="98.5" cy="23.4" r="0.7" fill="#62303a" opacity="0.31"/><circle cx="12.5" cy="183.5" r="1.0" fill="#62303a" opacity="0.26"/><circle cx="9.4" cy="32.0" r="1.1" fill="#62303a" opacity="0.35"/><circle cx="144.5" cy="101.1" r="0.8" fill="#3a141a" opacity="0.54"/><circle cx="86.9" cy="117.1" r="1.2" fill="#5a2730" opacity="0.37"/><circle cx="130.4" cy="15.1" r="0.8" fill="#62303a" opacity="0.35"/><circle cx="77.2" cy="231.6" r="1.0" fill="#62303a" opacity="0.51"/><circle cx="201.0" cy="93.8" r="0.6" fill="#62303a" opacity="0.61"/><circle cx="32.4" cy="28.6" r="0.7" fill="#62303a" opacity="0.54"/><circle cx="216.4" cy="41.2" r="0.7" fill="#62303a" opacity="0.37"/><circle cx="97.8" cy="52.5" r="0.6" fill="#5a2730" opacity="0.56"/><circle cx="219.2" cy="34.5" r="0.8" fill="#5a2730" opacity="0.40"/></svg>
