<svg xmlns="http://www.w3.org/2000/svg" width="256" height="256" viewBox="0 0 256 256"><rect width="256" height="256" fill="#2b2a28"/><rect x="2" y="2" width="124" height="124" fill="#5d5a55"/><rect x="130" y="2" width="124" height="124" fill="#57544f"/><rect x="2" y="130" width="124" height="124" fill="#55524d"/><rect x="130" y="130" width="124" height="124" fill="#5f5c57"/><circle cx="122.1" cy="34.0" r="1.2" fill="#4a4844" opacity="0.38"/><circle cx="86.1" cy="66.9" r="0.9" fill="#6a6762" opacity="0.27"/><circle cx="194.5" cy="233.0" r="1.2" fill="#6a6762" opacity="0.63"/><circle cx="158.3" cy="7.9" r="0.9" fill="#6a6762" opacity="0.48"/><circle cx="25.2" cy="120.0" r="0.6" fill="#4a4844" opacity="0.57"/><circle cx="211.9" cy="147.1" r="0.8" fill="#6a6762" opacity="0.25"/><circle cx="51.7" cy="195.1" r="1.4" fill="#4a4844" opacity="0.41"/><circle cx="24.5" cy="178.0" r="1.3" fill="#6a6762" opacity="0.52"/><circle cx="245.0" cy="131.9" r="1.1" fill="#4a4844" opacity="0.38"/><circle cx="55.0" cy="179.1" r="1.0" fill="#4a4844" opacity="0.67"/><circle cx="196.3" cy="125.5" r="1.4" fill="#4a4844" opacity="0.53"/><circle cx="91.0" cy="102.7" r="0.9" fill="#4a4844" opacity="0.44"/><circle cx="165.3" cy="95.2" r="0.8" fill="#6a6762" opacity="0.66"/><circle cx="128.3" cy="97.1" r="1.3" fill="#4a4844" opacity="0.67"/><circle cx="32.5" cy="152.1" r="1.2" fill="#4a4844" opacity="0.41"/><circle cx="83.6" cy="39.8" r="1.3" fill="#6a6762" opacity="0.33"/><circle cx="112.3" cy="198.0" r="1.1" fill="#4a4844" opacity="0.40"/><circle cx="164.5" cy="178.3" r="1.0" fill="#6a6762" opacity="0.39"/><circle cx="180.0" cy="216.0" r="0.7" fill="#4a4844" opacity="0.69"/><circle cx="185.1" cy="154.3" r="0.9" fill="#4a4844" opacity="0.40"/><circle cx="48.5" cy="249.6" r="1.2" fill="#4a4844" opacity="0.32"/><circle cx="168.4" cy="50.0" r="0.7" fill="#4a4844" opacity="0.61"/><circle cx="187.7" cy="111.3" r="0.8" fill="#4a4844" opacity="0.38"/><circle cx="226.6" cy="118.8" r="0.6" fill="#6a6762" opacity="0.56"/><circle cx="128.1" cy="161.9" r="1.0" fill="#4a4844" opacity="0.37"/><circle cx="189.0" cy="1.4" r="0.8" fill="#6a6762" opacity="0.57"/><circle cx="150.4" cy="165.7" r="1.3" fill="#4a4844" opacity="0.56"/><circle cx="164.2" cy="116.2" r="0.9" fill="#4a4844" opacity="0.65"/><circle cx="62.1" cy="102.4" r="1.2" fill="#4a4844" opacity="0.36"/><circle cx="108.4" cy="116.5" r="1.1" fill="#6a6762" opacity="0.48"/><circle cx="169.2" cy="223.5" r="1.3" fill="#6a6762" opacity="0.60"/><circle cx="99.5" cy="125.4" r="1.4" fill="#4a4844" opacity="0.36"/><circle cx="55.8" cy="183.4" r="1.4" fill="#4a4844" opacity="0.48"/><circle cx="25.9" cy="147.1" r="1.0" fill="#6a6762" opacity="0.48"/><circle cx="163.7" cy="212.2" r="1.0" fill="#6a6762" opacity="0.58"/><circle cx="117.0" cy="253.5" r="0.7" fill="#4a4844" opacity="0.58"/><circle cx="157.2" cy="163.2" r="0.8" fill="#6a6762" opacity="0.43"/><circle cx="3.4" cy="107.2" r="0.9" fill="#6a6762" opacity="0.51"/><circle cx="28.0" cy="77.7" r="0.9" fill="#4a4844" opacity="0.70"/><circle cx="246.0" cy="118.3" r="0.7" fill="#4a4844" opacity="0.61"/><circle cx="162.4" cy="120.1" r="1.0" fill="#4a4844" opacity="0.62"/><circle cx="37.4" cy="170.5" r="1.3" fill="#6a6762" opacity="0.46"/><circle cx="75.4" cy="140.4" r="0.7" fill="#6a6762" opacity="0.41"/><circle cx="217.8" cy="68.5" r="0.9" fill="#6a6762" opacity="0.69"/><circle cx="173.8" cy="123.3" r="1.2" fill="#6a6762" opacity="0.41"/><circle cx="167.5" cy="82.0" r="1.0" fill="#4a4844" opacity="0.55"/><circle cx="92.8" cy="237.8" r="1.3" fill="#4a4844" opacity="0.29"/><circle cx="144.5" cy="83.1" r="1.4" fill="#6a6762" opacity="0.53"/><circle cx="3.8" cy="2.9" r="1.4" fill="#6a6762" opacity="0.36"/><circle cx="26.0" cy="36.5" r="0.8" fill="#6a6762" opacity="0.41"/><circle cx="39.1" cy="231.4" r="1.2" fill="#4a4844" opacity="0.52"/><circle cx="176.1" cy="250.2" r="0.7" fill="#6a6762" opacity="0.34"/><circle cx="177.4" cy="135.9" r="1.2" fill="#6a6762" opacity="0.55"/><circle cx="29.9" cy="30.3" r="0.9" fill="#4a4844" opacity="0.46"/><circle cx="142.6" cy="124.0" r="1.3" fill="#6a6762" opacity="0.36"/><circle cx="42.1" cy="153.5" r="1.2" fill="#4a4844" opacity="0.63"/><circle cx="119.8" cy="144.0" r="1.1" fill="#6a6762" opacity="0.42"/><circle cx="107.2" cy="245.9" r="0.7" fill="#6a6762" opacity="0.54"/><circle cx="7.3" cy="156.1" r="1.1" fill="#6a6762" opacity="0.61"/><circle cx="24.1" cy="123.9" r="1.2" fill="#4a4844" opacity="0.27"/><circle cx="183.9" cy="160.1" r="0.9" fill="#6a6762" opacity="0.40"/><circle cx="199.3" cy="141.9" r="1.3" fill="#6a6762" opacity="0.45"/><circle cx="108.1" cy="141.8" r="1.3" fill="#6a6762" opacity="0.41"/><circle cx="126.4" cy="85.4" r="1.4" fill="#6a6762" opacity="0.69"/><circle cx="167.6" cy="202.7" r="0.9" fill="#6a6762" opacity="0.57"/><circle cx="32.7" cy="249.0" r="0.7" fill="#4a4844" opacity="0.43"/><circle cx="141.9" cy="103.9" r="1.1" fill="#6a6762" opacity="0.39"/><circle cx="1.6" cy="48.6" r="1.3" fill="#4a4844" opacity="0.61"/><circle cx="232.9" cy="156.6" r="1.1" fill="#4a4844" opacity="0.35"/><circle cx="170.8" cy="117.2" r="1.2" fill="#4a4844" opacity="0.55"/><circle cx="222.5" cy="107.9" r="0.7" fill="#4a4844" opacity="0.42"/><circle cx="210.6" cy="201.4" r="1.0" fill="#6a6762" opacity="0.64"/><circle cx="47.3" cy="8.8" r="0.6" fill="#4a4844" opacity="0.47"/><circle cx="133.7" cy="211.1" r="1.2" fill="#6a6762" opacity="0.51"/><circle cx="235.2" cy="114.3" r="0.6" fill="#6a6762" opacity="0.52"/><circle cx="254.2" cy="168.8" r="0.7" fill="#6a6762" opacity="0.50"/><circle cx="21.2" cy="120.9" r="1.3" fill="#4a4844" opacity="0.44"/><circle cx="2.4" cy="171.4" r="1.4" fill="#4a4844" opacity="0.35"/><circle cx="31.1" cy="120.9" r="0.8" fill="#4a4844" opacity="0.45"/><circle cx="190.5" cy="236.2" r="0.9" fill="#4a4844" opacity="0.58"/></svg>
